<svg width="33" height="33" viewBox="0 0 33 33" fill="none" xmlns="http://www.w3.org/2000/svg">
<path d="M23.375 9.62424H23.3888M4.125 16.5C4.125 13.0438 4.125 11.3157 4.61112 9.92646C5.48179 7.43819 7.43819 5.48179 9.92646 4.61112C11.3157 4.125 13.0438 4.125 16.5 4.125C19.9562 4.125 21.6843 4.125 23.0736 4.61112C25.5618 5.48179 27.5181 7.43819 28.3889 9.92646C28.875 11.3157 28.875 13.0438 28.875 16.5C28.875 19.9562 28.875 21.6843 28.3889 23.0736C27.5181 25.5618 25.5618 27.5181 23.0736 28.3889C21.6843 28.875 19.9562 28.875 16.5 28.875C13.0438 28.875 11.3157 28.875 9.92646 28.3889C7.43819 27.5181 5.48179 25.5618 4.61112 23.0736C4.125 21.6843 4.125 19.9562 4.125 16.5ZM21.6941 15.7297C21.856 16.8223 21.6694 17.938 21.1607 18.9183C20.6521 19.8987 19.8473 20.6936 18.8607 21.1903C17.8742 21.6868 16.7562 21.8596 15.6658 21.6842C14.5754 21.5087 13.5681 20.9939 12.7871 20.2129C12.0061 19.4319 11.4913 18.4246 11.3159 17.3342C11.1404 16.2438 11.3132 15.1258 11.8098 14.1393C12.3063 13.1528 13.1013 12.3479 14.0817 11.8392C15.062 11.3306 16.1777 11.144 17.2701 11.306C18.3846 11.4712 19.4162 11.9905 20.2129 12.7871C21.0095 13.5837 21.5288 14.6154 21.6941 15.7297Z" stroke="white" stroke-width="2.75" stroke-linecap="round" stroke-linejoin="round"/>
</svg>
