<svg width="33" height="33" viewBox="0 0 33 33" fill="none" xmlns="http://www.w3.org/2000/svg">
<path d="M23.375 23.375V18.5625C23.375 16.664 21.836 15.125 19.9375 15.125C18.039 15.125 16.5 16.664 16.5 18.5625M16.5 18.5625V23.375M16.5 18.5625V14.4375M11 14.4375V23.375M11 9.625V9.63875M15.125 28.875H17.875C21.7254 28.875 23.6505 28.875 25.1212 28.1257C26.4148 27.4665 27.4665 26.4148 28.1257 25.1212C28.875 23.6505 28.875 21.7254 28.875 17.875V15.125C28.875 11.2746 28.875 9.34946 28.1257 7.87882C27.4665 6.5852 26.4148 5.53346 25.1212 4.87433C23.6505 4.125 21.7254 4.125 17.875 4.125H15.125C11.2746 4.125 9.34946 4.125 7.87882 4.87433C6.5852 5.53346 5.53346 6.5852 4.87433 7.87882C4.125 9.34946 4.125 11.2746 4.125 15.125V17.875C4.125 21.7254 4.125 23.6505 4.87433 25.1212C5.53346 26.4148 6.5852 27.4665 7.87882 28.1257C9.34946 28.875 11.2746 28.875 15.125 28.875Z" stroke="white" stroke-width="2.75" stroke-linecap="round" stroke-linejoin="round"/>
</svg>
