<svg width="33" height="33" viewBox="0 0 33 33" fill="none" xmlns="http://www.w3.org/2000/svg">
<path d="M28.8211 7.22547C29.0674 6.66128 28.42 6.18611 27.8774 6.47692C27.0266 6.93293 26.1312 7.30368 25.204 7.58286C21.4722 2.92213 15.0424 6.84588 15.9926 11.8723C16.0235 12.0354 15.9021 12.1933 15.7362 12.1902C12.2402 12.1245 9.77214 10.9871 7.39059 8.30752C7.05248 7.9271 6.45413 7.94503 6.19833 8.38504C4.62487 11.0916 0.740592 19.4871 10.7331 22.8532C8.77893 24.1797 6.22947 25.3062 4.92344 25.8449C4.60041 25.9782 4.58661 26.4365 4.90522 26.58C17.9445 32.4535 30.6349 23.8985 26.6165 10.4344C27.5528 9.51104 28.2994 8.42077 28.8211 7.22547Z" stroke="white" stroke-width="2.75" stroke-linecap="round" stroke-linejoin="round"/>
</svg>
